<?xml version="1.0" encoding="utf-8"?>
<!-- Generator: Adobe Illustrator 18.1.0, SVG Export Plug-In . SVG Version: 6.00 Build 0)  -->
<!DOCTYPE svg PUBLIC "-//W3C//DTD SVG 1.1//EN" "http://www.w3.org/Graphics/SVG/1.1/DTD/svg11.dtd">
<svg version="1.1" id="Layer_1" xmlns="http://www.w3.org/2000/svg" xmlns:xlink="http://www.w3.org/1999/xlink" x="0px" y="0px"
	 viewBox="0 0 2798.5 2424.5" enable-background="new 0 0 2798.5 2424.5" xml:space="preserve">
<g>
	<path fill="#F9BF2C" d="M2577.1,377.9c19.5,18.9,19.8,42.5,0.4,61.5c-4.2,4.2-9.5,7.3-13.9,11.3c-1.9,1.7-3.9,4.2-4.3,6.6
		c-10,52.9-25.4,104.2-48.1,153.1c-33.8,72.9-80.5,135.6-145.6,183.7c-7.8,5.7-15.8,11.1-24,16.3c-3.2,2-4.5,4.1-4.5,7.9
		c0.2,17.2-0.2,34.3,0.2,51.5c0.3,13.8-5,24.9-14.8,34.2c-12.1,11.4-26.8,18.4-42.1,24.4c-69.1,27.2-140.6,36.4-214.3,28.6
		c-45.4-4.8-88.9-17.3-130.2-36.8c-9.8-4.6-18.8-11.3-27.2-18.3c-9.5-7.9-13.7-18.8-13.5-31.5c0.3-17.3,0-34.7,0.2-52
		c0-3.2-1-5.1-3.8-6.8c-96-59.2-160-144.1-199.3-248.7c-13.1-34.9-22.3-70.8-28.2-107.6c-0.6-3.9-2.1-6.5-5.4-8.9
		c-10.2-7.6-18.7-16.7-21.5-29.7c-3-14.2,1.6-26.3,10.9-36.9c8.7-9.8,19.4-17,31.4-21.7c17.5-6.9,35.5-12.5,53.1-18.8
		c2.6-0.9,5.5-2.6,7-4.8c35.9-50.7,99.9-70.8,158.3-49.5c2.8,1,4.4,1.4,6.5-1.7c27-40.6,64.9-58.1,113.4-52.5c0.5,0.1,1,0.1,1.5,0.1
		c0.3,0,0.6-0.1,1.5-0.3c4.6-20.3,13.3-38.6,27.8-53.5c33.5-34.3,73.8-45.8,119.3-30.5c45.3,15.2,70.8,48.4,77.1,96
		c0.3,2.7,0.5,4.5,4,4.9c24,3,45.1,12.7,62.8,29.2c2.7,2.5,4.4,0.8,6.5-0.2c43.1-21,84.2-17.6,122.9,10.7
		c15.3,11.2,26.5,26.2,34.1,43.6c1.4,3.1,3.3,4.5,6.5,5.3c21.8,5.2,43.1,11.6,63.4,21.2C2556.9,362.6,2567.8,369,2577.1,377.9z
		 M2548,416.2c13-10,13.2-13.9-0.1-23.5c-18.5-13.4-40.4-19.2-62.6-25.6c0,2.7,0.2,4.6,0,6.3c-0.6,4.4,1.1,6.6,5.4,8.4
		c18.2,7.6,31.7,20.5,41,37.9c0.8,1.5,1.7,3.1,2.8,5C2539.3,421.7,2543.9,419.3,2548,416.2z M2504.5,436.1c-0.7-1.5-1.1-2.4-1.5-3.3
		c-10.4-18.4-32.3-30.6-57.2-24.9c-10.2,2.3-17.7-2.5-19.7-11.8c-1.9-9.4,3-16.5,13.2-18.8c4.7-1,9.4-1.7,14.4-2.5
		c0.1-1.1,0.2-2.1,0.1-3.1c-3.9-58.6-65.4-92.8-111.9-69.8c-7.6,3.8-15.3,7.4-23.2,10.5c-9.8,3.8-14.2,2.4-21.1-5.6
		c-13.7-15.7-30.7-25.3-51.4-28.1c-6.4-0.9-13-0.8-19.4-1.6c-7.7-1-10.9-4.3-11.8-11.9c-0.5-4.3-0.6-8.6-0.7-13
		c-1-41.2-31.9-75.4-72.6-80.1c-40.5-4.7-78.6,21.1-89,60.7c-1.8,6.9-2.3,14.2-3.4,21.3c7.7,0.6,14.2,0.7,20.6,1.8
		c29.3,5,51.2,20.6,65.6,46.6c5.1,9.3,2,18.4-7.2,22.5c-8.1,3.6-15.5,0.8-20.5-7.9c-11.3-19.6-28.3-30.6-50.9-31.1
		c-26-0.6-44.4,11.9-55.2,35.5c-4.2,9.2-12.3,12.3-21,8.5c-8.6-3.7-11.6-12-7.6-21.3c7.9-18.5,20.4-33.1,38-43
		c1.2-0.7,2.4-1.5,3.9-2.5c-19.9-6.3-45.8-0.7-62.7,13.3c-12.4,10.3-20.1,24.2-28.9,37.8c2,0.5,3.6,1,5.2,1.4
		c10.6,2.6,20.5,6.9,29.5,13.2c7.9,5.5,9.7,14.2,4.7,21.8c-5.1,7.7-14,9.8-21.8,4.3c-30-20.9-73.4-9.4-88.1,25.5
		c-3.8,8.9-12.2,12-20.6,8.2c-8.6-3.8-11.7-12.1-7.8-21.2c8.8-20.2,22.9-35.4,42.8-45c6.4-3,13.2-5.2,20.4-8
		c-1.8-0.7-3.2-1.4-4.7-1.8c-52.8-17.2-110.4,10.4-129.6,62.5c-3.2,8.7-4.6,18-6.3,27.2c-1.7,9.1-8.2,14.9-17,14
		c-9.3-0.9-14.9-7.6-14.2-17.1c0.2-2.7,0.5-5.3,1-7.9c1.1-6,2.3-12,3.6-18.6c-16.3,5.4-31.7,11.2-44.5,22.1
		c-7.6,6.5-8.1,11.4-0.2,17.4c7.5,5.7,15.7,10.7,24.3,14.6c26.8,12.1,55.3,18.3,83.9,23.8c46.7,8.9,93.9,13.8,141.3,17.7
		c3.2,0.3,4-1.2,4.9-3.6c5.2-12.9,13.2-23.9,23.7-32.9c26-22.1,56.4-30.7,90-29c27.6,1.4,52.5,10.3,73.7,28.4
		c7.1,6.1,7.8,14.8,2.2,21.8c-5.8,7.2-14.8,8.3-22.1,2.3c-22.1-18.2-47.6-23.9-75.4-20.5c-21.5,2.7-40.4,11-54.7,28
		c-1.9,2.2-3.4,4.8-5.5,7.7c2.4,0.3,3.8,0.5,5.3,0.6c38.3,1.5,76.6,3.7,114.9,4.2c97.1,1.4,193.9-2.8,290.4-13.9
		c41.2-4.8,82.2-11.2,122.2-22.7C2498.1,438.2,2501.2,437.1,2504.5,436.1z M2288.3,883c7.8-4.5,12.5-9.9,11.5-19.9
		c-1-9.5-0.2-19.1-0.2-28.7c-121.9,51.4-243.6,53.1-365.7,0.6c0,8.1-0.1,15.9,0,23.7c0.4,19.2,0.4,19.5,17.8,27.6
		c38.2,17.8,78.3,29.1,120.3,33.5c52.3,5.5,103.9,1.1,154.5-13C2247.8,900.9,2268.9,894,2288.3,883z"/>
	<path fill="#F5F5F5" d="M2502.9,432.8c0.5,0.9,0.8,1.8,1.5,3.3c-3.3,1-6.4,2.1-9.5,3c-40,11.5-81,17.9-122.2,22.7
		c-96.5,11.2-193.3,15.3-290.4,13.9c-38.3-0.6-76.6-2.7-114.9-4.2c-1.5,0-2.9-0.3-5.3-0.6c2.1-2.9,3.6-5.4,5.5-7.7
		c14.3-17,33.2-25.4,54.7-28c27.8-3.4,53.3,2.3,75.4,20.5c7.3,6,16.3,4.9,22.1-2.3c5.6-7,4.9-15.7-2.2-21.8
		c-21.2-18.2-46.1-27-73.7-28.4c-33.6-1.7-64,6.9-90,29c-10.6,9-18.6,20-23.7,32.9c-0.9,2.4-1.7,3.8-4.9,3.6
		c-47.3-3.9-94.6-8.9-141.3-17.7c-28.7-5.4-57.2-11.7-83.9-23.8c-8.6-3.8-16.8-8.9-24.3-14.6c-7.9-6-7.4-11,0.2-17.4
		c12.8-10.9,28.2-16.7,44.5-22.1c-1.3,6.6-2.5,12.6-3.6,18.6c-0.5,2.6-0.8,5.3-1,7.9c-0.7,9.5,4.9,16.2,14.2,17.1
		c8.8,0.9,15.3-4.9,17-14c1.7-9.1,3.1-18.5,6.3-27.2c19.2-52.1,76.8-79.7,129.6-62.5c1.5,0.5,2.9,1.2,4.7,1.8c-7.2,2.8-14,5-20.4,8
		c-19.9,9.5-34,24.8-42.8,45c-4,9.1-0.8,17.5,7.8,21.2c8.4,3.7,16.9,0.7,20.6-8.2c14.7-35,58.1-46.5,88.1-25.5
		c7.8,5.5,16.7,3.3,21.8-4.3c5-7.6,3.2-16.3-4.7-21.8c-9-6.3-18.8-10.6-29.5-13.2c-1.6-0.4-3.2-0.8-5.2-1.4
		c8.8-13.5,16.5-27.4,28.9-37.8c16.9-14,42.8-19.7,62.7-13.3c-1.5,1-2.7,1.8-3.9,2.5c-17.6,9.9-30.1,24.5-38,43
		c-4,9.3-0.9,17.5,7.6,21.3c8.6,3.8,16.8,0.6,21-8.5c10.8-23.7,29.2-36.1,55.2-35.5c22.5,0.5,39.5,11.5,50.9,31.1
		c5,8.7,12.4,11.5,20.5,7.9c9.2-4.1,12.3-13.2,7.2-22.5c-14.3-26-36.3-41.6-65.6-46.6c-6.4-1.1-12.9-1.2-20.6-1.8
		c1.1-7.1,1.6-14.4,3.4-21.3c10.4-39.6,48.5-65.5,89-60.7c40.7,4.8,71.7,38.9,72.6,80.1c0.1,4.3,0.1,8.7,0.7,13
		c1,7.6,4.2,10.9,11.8,11.9c6.4,0.9,13,0.8,19.4,1.6c20.7,2.7,37.8,12.4,51.4,28.1c6.9,7.9,11.3,9.4,21.1,5.6
		c7.9-3.1,15.6-6.8,23.2-10.5c46.5-23.1,108.1,11.2,111.9,69.8c0.1,1-0.1,1.9-0.1,3.1c-4.9,0.8-9.7,1.5-14.4,2.5
		c-10.2,2.3-15.2,9.4-13.2,18.8c1.9,9.3,9.4,14.2,19.7,11.8C2470.6,402.2,2492.5,414.4,2502.9,432.8z M2357.6,434.5
		c4.3-5.3,4.7-11.6,0.7-18.1c-16.7-26.7-41.2-39.7-71.8-41.2c-30.1,0.8-53.3,13.2-69.7,38c-4.8,7.2-3.7,14.9,2.3,20.3
		c7.7,6.9,17.7,5.8,23.7-3c7-10.2,15.9-17.9,27.9-21.5c22.7-6.9,46.6,2.2,60.2,22.4c2.3,3.4,5.7,6.7,9.3,8.4
		C2345.9,442.5,2353.3,439.7,2357.6,434.5z"/>
	<path fill="#F9BF2C" d="M2358.3,416.4c4.1,6.5,3.7,12.8-0.7,18.1c-4.3,5.2-11.7,8-17.4,5.3c-3.6-1.8-7-5-9.3-8.4
		c-13.6-20.2-37.5-29.3-60.2-22.4c-12,3.7-20.9,11.3-27.9,21.5c-6.1,8.8-16,9.9-23.7,3c-6-5.4-7-13.1-2.3-20.3
		c16.4-24.8,39.6-37.2,69.7-38C2317.1,376.7,2341.6,389.7,2358.3,416.4z"/>
	<path fill="#F9BF2C" d="M2146.6,1138.8c5.7,8.2,5.8,16.5,1.4,21.3c-4.3,4.7-12.6,5.1-21.4,0.5c-4.4-2.3-8.6-5.2-12.3-8.4
		c-116.4-99.5-232.7-199.1-349-298.6c-55.4-47.5-110.9-94.9-166.3-142.3c-7.7-6.6-13-14.2-13.1-26.8c0.7-11.6,7.3-21.7,19.7-27.5
		c12.5-5.9,23.8-2.8,33.6,6.3c22,20.3,43.9,40.8,65.9,61.3c142.8,133,285.5,266,428.2,399C2138,1128.2,2142.7,1133.3,2146.6,1138.8z
		"/>
	<path fill="#F9BF2C" d="M2043.6,1101.7c3.3,4.6,3.9,10.4,0,15.5c-3.8,5-9.6,5.9-15,4.2c-7-2.3-14.1-5.2-20.2-9.3
		c-72.9-49.9-145.5-100-218.3-150.1c-113.3-78.1-226.7-156.1-340-234.1c-9.2-6.3-15.2-14.4-15.2-27.7c0.7-11.6,6.7-21.6,18.5-27.7
		c11.7-6,22.7-3.5,32.8,4.1c32.2,24.2,64.4,48.5,96.7,72.7c148.5,111.9,297.1,223.7,445.5,335.7
		C2034.3,1089.4,2039.2,1095.6,2043.6,1101.7z"/>
	<path fill="#EF4438" d="M1802.5,1722c16.7,71.9,18.8,297.8-148.6,429.2c-167.5,131.3-452.6,135.9-632.1-6.6
		c-179.5-142.4-173.3-343.9-151.4-422.6c18.9-68.2,64.9-143.7,128.7-171.9c33-14.5,82.2-1.4,94.1,2.8c39.3,13.9,73.9,34.9,92.9,50.5
		c18.9,15.6,63.1,66.2,168.6,66.2c37.9,0,73.2-4.9,104.8-24.1c28.8-17.4,54.8-37.4,78.6-80.4c6.9-12.3,28.4-47.8,76.1-39.7
		C1732.8,1548.2,1787.2,1655.8,1802.5,1722z"/>
	<path fill="#EF4438" d="M1558.5,1348.2c0,0-42.2,221-128.1,272.9c-4.1,2.5-8.4,4.7-12.5,6.7c13.4-29.7,16.9-70,11.1-123.7
		C1474.9,1465.3,1526.8,1413.2,1558.5,1348.2z"/>
	<path fill="#EF4438" d="M1386.1,1509.8c7.5,63.6,3.6,129-48,129c-51.7,0-58.2-54.3-42.3-115.3c15.9-60.9,0.9-127.9,0.9-127.9
		c-3.5-30.3,55.5-31.8,65.4-6C1367.9,1404.6,1378.6,1446.2,1386.1,1509.8z"/>
	<path fill="#6D4D42" d="M1290.7,446.1c7.3,27.3,10.2,55.3,10.2,97.6c-1.4,82.2-35.4,164.8-103.5,232.9c-16.3,16.4-35.6,29-55,41.5
		c-72.1,46.6-147.9,86.3-225.7,122.2c-42.8,19.8-86.3,38-131.5,51.6c-25.4,7.7-51.1,12.9-77.8,9.8c-1.9-0.2-4.6,0.9-6,2.3
		c-33.3,33.1-66.5,66.4-99.8,99.6c-2.1,2.1-2.3,3.9-1.3,6.5c38.3,104.4-31.2,216-141.8,227.8c-82.7,8.8-159.9-44.6-180.8-125
		c-1.1-4.1-2.8-6-6.9-7c-66.4-17.1-115.9-73.4-124.7-141.8c-8.8-67.6,24.4-134.9,83.2-168.3c46.1-26.1,94.2-30,144-12.1
		c2.8,1,4.5,0.6,6.5-1.5c33.2-33.3,66.5-66.5,99.6-99.8c1.4-1.3,2.7-3.8,2.5-5.5c-4.1-33.8,5-65.5,15.6-96.9
		c22.8-67.6,53.2-131.9,85.8-195.2c28.2-54.9,58.3-108.6,92.9-159.8c41.1-60.8,98.1-100.7,166.6-123.9
		c82.9-28.1,165.8-25.7,246.1,9.1C1194,255.8,1261.1,335.3,1290.7,446.1z M624.2,979.3c-53.9-26.2-93.6-65.7-120-120.1
		c-8,8.1-15.4,15.7-23,23.3c-29.4,29.5-59,58.9-88.3,88.4c-2.8,2.8-4.7,3-7.9,0.8c-6.6-4.5-13.5-8.5-20.4-12.7
		c-19.1-11.5-39.7-16-61.8-13.6c-45.8,5.1-83,43.9-85.8,89.6c-3,48.4,27.9,91.3,74.2,101.4c14.2,3.1,29.1,3,43.7,4.1
		c8.9,0.7,7.6-0.7,8.1,7.9c0.6,10.7,0.8,21.3,1.8,31.9c3.9,39.2,32.7,72.8,70.8,83.1c39.4,10.6,80.6-4,104.6-36.9
		c23.5-32.2,24.9-75.7,3.5-109c-4.8-7.5-9.7-15.1-14.9-23.1C547.2,1056.1,585.5,1017.9,624.2,979.3z"/>
	<path fill="#EF4438" d="M1256.9,1504.1c-0.1,0.5-0.3,1-0.4,1.5c-9.7,37.1-11.8,69.9-6.3,97.3c-5.2-3.7-9.9-7.6-14-11.3
		c-39-36.1-128-119.6-221.6-116.6c0,0,116.1-19.5,215.3,18.6C1239.5,1497.2,1248.4,1500.8,1256.9,1504.1z"/>
</g>
</svg>
